<?xml version="1.0" encoding="utf-8"?>
<!-- Generator: Adobe Illustrator 28.3.0, SVG Export Plug-In . SVG Version: 6.00 Build 0)  -->
<svg version="1.1" id="Capa_1" xmlns="http://www.w3.org/2000/svg" xmlns:xlink="http://www.w3.org/1999/xlink" x="0px" y="0px"
	 viewBox="0 0 1280 1280" style="enable-background:new 0 0 1280 1280;" xml:space="preserve">
<style type="text/css">
	.st0{fill:#006EB2;}
	.st1{fill:#232E5C;}
	.st2{fill:#FFFFFF;}
	.st3{fill:none;}
</style>
<g>
	<g>
		<path class="st0" d="M642.6,90.7c-221.3,0-400.7,181.7-400.7,405.8v660.1c0,21.6,17.5,39.2,39.2,39.2h723.1
			c21.6,0,39.2-17.5,39.2-39.2V496.5C1043.3,272.4,863.9,90.7,642.6,90.7z"/>
		<path class="st1" d="M423.1,279.5c15.6-4.7,35-5.1,46.9-4.7c13.6,0.5,20.9-39.9,34.2-36.7c14.4,3.5,34.9,50.8,48.5,56.4
			c99.6,41,193.6,123.3,223.2,229.7c7,25.1,9.1,48.4,3.8,74.1c-4.8,23.3-15.5,46.5-31.2,65c-10.4,12.3-23.5,22.7-37.8,30
			c-8.1,4.1-26.1,8.8-24.9,20.8c1.9,18.6,33.9,13.3,45.5,11.1c23.6-4.5,44.6-16.9,62.3-33c31.5-28.9,51.8-70.1,62.5-111.1
			c22.6-86.6,14.5-183-29.2-260.6c-61.2-108.8-128-129.6-155-133.4c-9.6-0.9-19.3-1.4-29.1-1.4C556.5,185.8,478.8,221.7,423.1,279.5
			z"/>
		<path class="st1" d="M832,719.3c-6.8,36.5-97.8,65.1-180.8,20.2c-68.3-36.9-154-144.2-191-176.8c-60.2-53.1-122.7-33.4-111.7,22.2
			c37.6,128.5,155,222.2,294.1,222.2c96.4,0,182.4-45.1,238.6-115.5C856.7,685.4,842.6,661.8,832,719.3z"/>
		<path class="st2" d="M949.2,488.1c0-0.9-0.1-1.8-0.1-2.7c-0.1-1.9-0.1-3.7-0.2-5.6c-0.1-1.1-0.1-2.1-0.2-3.2
			c-0.1-1.7-0.2-3.4-0.3-5c-0.1-1.1-0.2-2.3-0.3-3.4c-0.1-1.6-0.3-3.2-0.5-4.8c-0.1-1.1-0.3-2.3-0.4-3.4c-0.2-1.6-0.4-3.2-0.6-4.7
			c-0.1-1.1-0.3-2.3-0.5-3.4c-0.2-1.6-0.5-3.2-0.7-4.7c-0.2-1.1-0.4-2.2-0.5-3.3c-0.3-1.6-0.6-3.2-0.8-4.8c-0.2-1.1-0.4-2.1-0.6-3.2
			c-0.3-1.6-0.7-3.2-1-4.9c-0.2-1-0.4-2-0.6-3c-0.4-1.7-0.8-3.4-1.2-5.1c-0.2-0.9-0.4-1.8-0.7-2.7c-0.5-1.8-0.9-3.7-1.4-5.5
			c-0.2-0.7-0.4-1.5-0.6-2.2c-0.6-2.2-1.2-4.3-1.9-6.5c-0.1-0.4-0.2-0.8-0.3-1.2c-2.4-7.8-5-15.5-8-23c-0.1-0.3-0.2-0.6-0.4-0.9
			c-0.9-2.2-1.7-4.3-2.6-6.5c-0.2-0.5-0.4-0.9-0.6-1.4c-0.8-2-1.7-4-2.6-5.9c-0.2-0.5-0.5-1-0.7-1.6c-0.9-1.9-1.8-3.8-2.7-5.7
			c-0.3-0.5-0.5-1-0.8-1.6c-0.9-1.9-1.9-3.7-2.8-5.6c-0.3-0.5-0.5-1-0.8-1.5c-1-1.9-2-3.8-3-5.6c-0.2-0.4-0.5-0.9-0.7-1.3
			c-1.1-1.9-2.2-3.9-3.3-5.8c-0.2-0.3-0.4-0.7-0.6-1c-1.2-2.1-2.5-4.1-3.7-6.1c-0.1-0.2-0.2-0.4-0.3-0.6
			c-11.4-18.2-24.5-35.1-39.3-50.5c0,0,0,0,0,0c-1.8-1.9-3.7-3.8-5.5-5.6c0,0-0.1-0.1-0.1-0.1c-1.9-1.8-3.7-3.6-5.6-5.4
			c0,0-0.1-0.1-0.1-0.1c-1.9-1.8-3.9-3.6-5.8-5.4c0,0,0,0,0,0c1.3,3.6,7.2,13.3,13.3,22c26.6,37.8,46.7,80.1,56.1,125.2
			c9.1,44.2,7.9,93.8-6.4,136.8c-11.9,35.7-41.6,66.3-79.6,72.6c-63,10.4-223.7-127.8-250.9-275.6c-8.2-44.7-5.3-158.5,82.3-158.2
			c-5.8-0.3-11.7-0.5-17.6-0.5c-112.8,0-211.4,61.7-264.7,153.6c0,0,0,0,0,0c-28.2,64.4,39,132.8,84.1,168.6
			C665,669.4,857.4,687.9,813.1,745.9c-2.5,3.3-7.1,8.9-12.4,11.2c-55.7,24.2-121.1,19.3-177.2-3.9c-44.5-18.4-78.3-49.8-113-82.9
			c-9.1-8.7-29.9-26.5-45.7-10.5c-15.8,15.9,7,28.1-23,68c-0.5,0.7-1,1.4-1.5,2.1c0,0,0,0,0,0c1.6,1.4,3.2,2.8,4.9,4.2
			c0.1,0.1,0.3,0.2,0.4,0.3c1.6,1.3,3.2,2.7,4.8,4c0.2,0.2,0.4,0.3,0.6,0.5c1.6,1.3,3.2,2.5,4.8,3.8c0.2,0.2,0.4,0.3,0.6,0.5
			c1.6,1.2,3.2,2.5,4.9,3.7c0.2,0.1,0.4,0.3,0.5,0.4c1.7,1.2,3.4,2.5,5.1,3.7c0.1,0.1,0.2,0.1,0.2,0.2c10.8,7.7,22.2,14.7,34,20.9
			c0.2,0.1,0.5,0.2,0.7,0.4c1.6,0.9,3.3,1.7,4.9,2.5c0.5,0.2,0.9,0.5,1.4,0.7c1.5,0.8,3.1,1.5,4.6,2.2c0.6,0.3,1.2,0.6,1.8,0.9
			c1.5,0.7,3,1.4,4.5,2c0.7,0.3,1.4,0.6,2.1,0.9c1.4,0.6,2.9,1.3,4.4,1.9c0.7,0.3,1.5,0.6,2.2,0.9c1.4,0.6,2.9,1.2,4.3,1.7
			c0.8,0.3,1.6,0.6,2.3,0.9c1.4,0.5,2.9,1.1,4.3,1.6c0.8,0.3,1.6,0.6,2.4,0.9c1.4,0.5,2.9,1,4.3,1.5c0.8,0.3,1.6,0.5,2.4,0.8
			c1.5,0.5,2.9,1,4.4,1.4c0.6,0.2,1.3,0.4,1.9,0.6c3.1,1,6.3,1.9,9.4,2.7c0.7,0.2,1.4,0.4,2.2,0.6c1.3,0.3,2.5,0.6,3.8,0.9
			c1.1,0.3,2.2,0.6,3.3,0.8c1.2,0.3,2.4,0.5,3.6,0.8c1.2,0.3,2.4,0.5,3.6,0.8c1.2,0.2,2.4,0.5,3.5,0.7c1.2,0.2,2.5,0.5,3.7,0.7
			c1.2,0.2,2.3,0.4,3.5,0.6c1.3,0.2,2.5,0.4,3.8,0.6c1.1,0.2,2.3,0.4,3.4,0.5c1.3,0.2,2.6,0.4,3.9,0.6c1.1,0.2,2.3,0.3,3.4,0.4
			c1.4,0.2,2.7,0.3,4.1,0.5c1.1,0.1,2.2,0.2,3.3,0.4c1.4,0.1,2.8,0.3,4.2,0.4c1.1,0.1,2.1,0.2,3.2,0.3c1.5,0.1,3,0.2,4.5,0.3
			c1,0.1,2,0.1,3,0.2c1.7,0.1,3.3,0.1,5,0.2c0.8,0,1.7,0.1,2.5,0.1c2.5,0.1,5.1,0.1,7.6,0.1c169.4,0,306.7-139.1,306.7-310.7
			C949.3,493.7,949.3,490.9,949.2,488.1z M506,380.3c-16.8-11.5-21.4-14.6-36.7-24.8c-16.7,19.4-19.2,23.2-32.8,44.1
			c4.6-26,6-30.6,13.7-56.6c-11.2-7.2-15.2-9.6-24.7-15.6c15.3-9.1,18.8-10.4,37.9-18.1c3.1-2.9,4.3-9,6.2-12.8
			c5.6-11.5,15-25.8,22-36.5c-1.5,16.7-1.3,20.9-0.4,41.1c21.7-4.7,26.8-5.3,51.4-8c-22.4,15.3-27.2,19.5-47.8,37.1
			C498.5,351.2,500.1,357.4,506,380.3z"/>
		<ellipse class="st3" cx="642.6" cy="496.5" rx="306.7" ry="310.7"/>
	</g>
	<g>
		<path class="st2" d="M350.4,915.8l16.3-19.4c9.9,7.6,21.2,10.7,31.9,10.7c5.5,0,7.8-1.4,7.8-3.9v-0.3c0-2.6-2.9-4-12.6-6
			c-20.4-4.2-38.4-10-38.4-29.3v-0.3c0-17.3,13.5-30.8,38.6-30.8c17.6,0,30.6,4.2,41.1,12.5l-14.8,20.6c-8.6-6.3-18.9-9-27.3-9
			c-4.6,0-6.6,1.6-6.6,3.8v0.3c0,2.5,2.5,4,12.1,5.9c23.3,4.3,38.9,11.1,38.9,29.5v0.3c0,19.2-15.7,30.9-40.2,30.9
			C378.6,931.2,361.9,926,350.4,915.8z"/>
		<path class="st2" d="M440.4,894.3v-0.3c0-21.3,15.2-37.4,36.6-37.4c25.2,0,36.9,17.6,36.9,39.2c0,1.6,0,3.4-0.1,5h-45.7
			c2.1,6.3,7,9.5,13.4,9.5c5.3,0,9.8-2.5,14.4-7.3l15.9,12.6c-7,9.1-17,15.5-32.4,15.5C456.2,931.2,440.4,916.5,440.4,894.3z
			 M487,887.8c-0.7-6.8-4.7-10.7-9.9-10.7c-4.9,0-8.5,4.2-9.4,10.7H487z"/>
		<path class="st2" d="M517.5,941.8l9.1-17.9c7.9,4.2,15.9,6.8,25.6,6.8c11.1,0,16.9-5.7,16.9-15.6V913c-4,4.6-10.7,9.8-20.6,9.8
			c-18.3,0-31.6-13-31.6-32.7v-0.3c0-19.9,13.5-33.1,29.9-33.1c10.4,0,16.5,3.9,21.7,9.3v-7.6h29.5v53.2c0,13.2-2.7,22.2-9.2,28.7
			c-6.4,6.4-16.1,10.4-32,10.4C541.2,950.6,529,947.5,517.5,941.8z M569.3,889.9v-0.3c0-6.1-4.7-11.1-11.8-11.1
			c-7.3,0-11.8,5.1-11.8,11.3v0.3c0,6.1,4.7,11,11.8,11C564.8,901.1,569.3,896.1,569.3,889.9z"/>
		<path class="st2" d="M607.3,905.3v-46.9h29.5v37.4c0,6.1,3.6,9.6,8.1,9.6c4.4,0,8.5-3.5,8.5-9.6v-37.4h29.5v71.2h-29.5V920
			c-4.6,5.9-11.7,11.2-21.7,11.2C616.7,931.2,607.3,921.3,607.3,905.3z"/>
		<path class="st2" d="M692.5,858.3H722v9.9c4.6-5.9,11.7-11.6,21.7-11.6c15,0,24.3,9.9,24.3,25.9v46.9h-29.5v-37.4
			c0-6.1-3.6-9.6-8.1-9.6c-4.4,0-8.5,3.5-8.5,9.6v37.4h-29.5V858.3z"/>
		<path class="st2" d="M774.4,894.4v-0.3c0-22.6,13.5-37.6,30.3-37.6c10.8,0,16.8,4.7,21.3,9.8v-32.1h29.5v95.2H826v-8.7
			c-4.8,5.2-10.3,10.4-21.1,10.4C787.8,931.2,774.4,916.2,774.4,894.4z M826.7,894.1v-0.3c0-7-5.1-12.8-11.8-12.8
			c-6.8,0-11.8,5.6-11.8,12.8v0.3c0,7.2,5.1,12.8,11.8,12.8C821.6,906.8,826.7,901.2,826.7,894.1z"/>
		<path class="st2" d="M861.6,909.3v-0.3c0-14.2,10.5-22.2,27.1-22.2c6,0,13.7,1.3,16.8,2.6v-1.2c0-6.5-4-10.3-13.1-10.3
			c-7.3,0-13.4,1.6-19.6,4l-5.2-19.7c8.2-3.1,17.6-5.2,29.9-5.2c14.4,0,23.8,3,30,9.3c5.3,5.3,7.4,12.3,7.4,22.6v40.5h-29.5v-7.2
			c-4.9,5.3-11.6,8.9-20.4,8.9C871.2,931.2,861.6,923.4,861.6,909.3z M905.7,903.2v-3c-1.7-0.7-4.3-1.2-6.8-1.2
			c-5.9,0-9.1,3.5-9.1,8v0.3c0,4.2,3,6.9,6.8,6.9C901.8,914.1,905.7,910,905.7,903.2z"/>
	</g>
	<g>
		<g>
			<g>
				<g>
					<path class="st2" d="M961.6,988.2l-55.1-6.4l-55.1,6.4l-6.1,123.8l61.3,12.8l61.3-12.8L961.6,988.2z M906.5,1113.2l-49.9-10.4
						l5.2-104.4l44.7-5.2l44.7,5.2l5.2,104.4L906.5,1113.2z"/>
				</g>
			</g>
			<path class="st2" d="M882.5,1081.8c7.8,1.3,21.6,3.5,21.6,3.5v15.2l-36.8-7.8l0.6-12.9c0,0,13.7-18.3,20.3-28
				c3.7-5.8,5.2-10.6,5.3-15.5c0-2,0-2.9,0.1-4.9c0.1-7.1-2.6-11.6-5.7-11.1c-6.5,1.1-7.1,19-7.1,19l-11-0.5c0,0,0.1-0.8,0.1-1.5
				c0.5-11.9,5.5-29.2,19-31c14-1.9,15.5,17.8,15.5,27.9c0,9.8-2.5,19.2-8,27.2C891.7,1068.5,887.5,1075.2,882.5,1081.8z"/>
			<path class="st2" d="M922.9,1007.1c19.2,2.1,21.2,30.1,21.9,43.8c0.8,15.7-0.5,41.7-19.9,46.2c-7.3,1.8-15.9,3.7-15.9,3.7v-94.5
				C908.9,1006.3,917.2,1006.5,922.9,1007.1z M935.2,1047.2c-0.2-9.1-1.7-23.8-11.4-25.7c-2-0.1-3.1-0.2-5.1-0.3
				c0.3,20.8,0.6,41.7,0.9,62.5c2.2-0.4,3.3-0.5,5.5-0.9c9.8-2.7,10.9-16.6,10.4-25.3C935.5,1053.3,935.4,1051.4,935.2,1047.2z"/>
		</g>
		<g>
			<path class="st2" d="M377.6,1095.8l-60.1-0.1V1011h18.2v68.9l41.9,0.1V1095.8z"/>
			<path class="st2" d="M467.9,1095.7h-18.7l-7.2-20.3h-36.9l-6.9,20.3h-18.7l30.9-84.7H436L467.9,1095.7z M422.8,1023.3l-12.8,37.8
				h27l-13.2-37.8H422.8z"/>
			<path class="st2" d="M560.5,1095.8l-60.1-0.1V1011h18.2v68.9l41.9,0.1V1095.8z"/>
			<path class="st2" d="M583,1095.7h-18.2V1011H583V1095.7z"/>
			<path class="st2" d="M626.9,1061.3v-13.6h44.3v48.2h-12.5l-1-14.4h-0.9c-4.5,9.8-13.4,15.4-25.7,15.4
				c-24.8,0-40.9-17.6-40.9-43.8c0-26.1,16.7-43.4,42-43.4c21.2,0,35.4,12,35.4,30.2h-16.9v-0.6c0-8.7-7.3-14.7-17.9-14.7
				c-14.3,0-23.8,11-23.8,27.5v2c0,16.6,9.7,28,24.6,28c12.7,0,21-7.9,21.6-20.8H626.9z"/>
			<path class="st2" d="M763,1095.7h-18.7l-7.2-20.3h-36.9l-6.9,20.3h-18.7l30.9-84.7h25.6L763,1095.7z M717.9,1023.3l-12.8,37.8h27
				l-13.2-37.8H717.9z"/>
		</g>
		<g>
			<polygon class="st2" points="802.5,1031.9 807.8,1048.3 825,1048.3 811.1,1058.4 816.4,1074.7 802.5,1064.6 788.6,1074.7 
				793.9,1058.4 780,1048.3 797.2,1048.3 			"/>
		</g>
	</g>
</g>
</svg>
